<svg xmlns="http://www.w3.org/2000/svg" width="18.722" height="18.769" viewBox="0 0 18.722 18.769">
  <g id="Notifications" transform="translate(0.774 0.75)">
    <path id="Path_1" data-name="Path 1" d="M16.185,15.111h-5.4a2.159,2.159,0,1,1-4.317,0h-5.4A1.037,1.037,0,0,1,.1,14.355a1.152,1.152,0,0,1,.324-1.187A4.345,4.345,0,0,0,2.154,9.714V6.476a6.476,6.476,0,0,1,12.952,0V9.714a4.345,4.345,0,0,0,1.727,3.454,1.022,1.022,0,0,1,.324,1.187A1.037,1.037,0,0,1,16.185,15.111Z" transform="translate(-0.063)" fill="#fff" stroke="#95989a" stroke-width="1.5" fill-rule="evenodd"/>
  </g>
</svg>
