<svg xmlns="http://www.w3.org/2000/svg" width="32.375" height="19.425" viewBox="0 0 32.375 19.425">
  <path id="bicycle-solid" d="M25.925,70.475a6.46,6.46,0,0,0-2.349.43l-3.929-6.331A1.214,1.214,0,0,0,18.615,64H15.378a.809.809,0,0,0-.809.809v.809a.809.809,0,0,0,.809.809H17.94l.754,1.214H12.95v-.809a.809.809,0,0,0-.809-.809H7.716A1.236,1.236,0,0,0,6.475,67.26a1.214,1.214,0,0,0,1.214,1.192h2.465l-1.488,2.4a6.475,6.475,0,1,0,4.08,7.713h2.632a1.214,1.214,0,0,0,1.032-.575l4.348-7.024.756,1.217a6.458,6.458,0,0,0-2.09,4.777,6.559,6.559,0,0,0,6.411,6.461,6.475,6.475,0,1,0,.09-12.949ZM9.447,74.207a4.039,4.039,0,0,1,.994,1.934H8.25ZM6.475,81a4.047,4.047,0,1,1,.865-8l-2.3,3.718A1.215,1.215,0,0,0,6.07,78.569h4.113A4.052,4.052,0,0,1,6.475,81ZM14.7,76.14H12.9a6.462,6.462,0,0,0-2.144-4.048l1.252-2.022h6.452L14.7,76.14Zm10.98,4.85a4.044,4.044,0,0,1-2.848-6.678l2.248,3.621a.809.809,0,0,0,1.114.261l.688-.427a.809.809,0,0,0,.261-1.114L24.9,73.029a4.047,4.047,0,1,1,.786,7.962Z" transform="translate(0 -64)"/>
</svg>
