<svg xmlns="http://www.w3.org/2000/svg" width="18.12" height="24.16" viewBox="0 0 18.12 24.16">
  <path id="clipboard-list-solid" d="M15.855,3.02H12.08a3.02,3.02,0,1,0-6.04,0H2.265A2.266,2.266,0,0,0,0,5.285v16.61A2.266,2.266,0,0,0,2.265,24.16h13.59a2.266,2.266,0,0,0,2.265-2.265V5.285A2.266,2.266,0,0,0,15.855,3.02ZM4.53,20.007a1.132,1.132,0,1,1,1.132-1.132A1.13,1.13,0,0,1,4.53,20.007Zm0-4.53a1.132,1.132,0,1,1,1.132-1.132A1.13,1.13,0,0,1,4.53,15.477Zm0-4.53A1.132,1.132,0,1,1,5.662,9.815,1.13,1.13,0,0,1,4.53,10.947Zm4.53-9.06A1.132,1.132,0,1,1,7.927,3.02,1.13,1.13,0,0,1,9.06,1.887ZM15.1,19.252a.379.379,0,0,1-.377.377H7.927a.379.379,0,0,1-.377-.377V18.5a.379.379,0,0,1,.377-.377h6.795a.379.379,0,0,1,.377.377Zm0-4.53a.379.379,0,0,1-.377.377H7.927a.379.379,0,0,1-.377-.377v-.755a.379.379,0,0,1,.377-.377h6.795a.379.379,0,0,1,.377.377Zm0-4.53a.379.379,0,0,1-.377.377H7.927a.379.379,0,0,1-.377-.377V9.437a.379.379,0,0,1,.377-.377h6.795a.379.379,0,0,1,.377.377Z"/>
</svg>
