<svg xmlns="http://www.w3.org/2000/svg" width="56.634" height="52.912" viewBox="0 0 56.634 52.912">
  <path id="Icon_awesome-shoe-prints" data-name="Icon awesome-shoe-prints" d="M13.5,11.25h2.25v-9H13.5a4.5,4.5,0,0,0,0,9ZM0,29.25a4.5,4.5,0,0,0,4.5,4.5H6.75v-9H4.5A4.5,4.5,0,0,0,0,29.25Zm23.728-9a14.38,14.38,0,0,0-7.364,2.25A10.746,10.746,0,0,1,9,24.75v9l4.045,1.123a28.734,28.734,0,0,0,5.647,1.058,24.46,24.46,0,0,0,6.861-.436C33.251,33.841,36,30.18,36,27c0-4.5-5.919-6.75-12.272-6.75ZM34.553.506A24.433,24.433,0,0,0,27.692.07a28.784,28.784,0,0,0-5.647,1.058L18,2.25v9a10.747,10.747,0,0,1,7.364,2.25,14.38,14.38,0,0,0,7.364,2.25C39.081,15.75,45,13.5,45,9,45,5.82,42.251,2.159,34.553.506Z" transform="matrix(0.883, 0.469, -0.469, 0.883, 16.901, 0)"/>
</svg>
