<svg xmlns="http://www.w3.org/2000/svg" width="34.386" height="12.834" viewBox="0 0 34.386 12.834">
  <g id="_1314955" data-name="1314955" transform="translate(-25 812.821)">
    <path id="Path_39" data-name="Path 39" d="M55.417-812.768a6.267,6.267,0,0,0-2.521,1.378,7.664,7.664,0,0,1-2.283,1.428,3.76,3.76,0,0,1-2.546.036,7.027,7.027,0,0,1-2.2-1.326c-.221-.18-.54-.418-.706-.531a4.651,4.651,0,0,0-4.638-.667,7.5,7.5,0,0,0-1.946,1.215,7.49,7.49,0,0,1-2.2,1.326,3.488,3.488,0,0,1-2.289-.014,7.822,7.822,0,0,1-2.291-1.434,5.888,5.888,0,0,0-2.8-1.406,4.547,4.547,0,0,0-1.373.044,6.334,6.334,0,0,0-2.388,1.234,1.573,1.573,0,0,0-.238.213c0,.031.775,1.185.8,1.185.006,0,.133-.091.28-.2,1.4-1.074,2.441-1.268,3.639-.686a7.219,7.219,0,0,1,1.442.971,10.052,10.052,0,0,0,1.735,1.165,5.55,5.55,0,0,0,1.71.584,5.94,5.94,0,0,0,1.384-.011,7.417,7.417,0,0,0,3.362-1.721,7.045,7.045,0,0,1,1.356-.913,3.167,3.167,0,0,1,1.528-.374,4.329,4.329,0,0,1,2.831,1.248,7.878,7.878,0,0,0,3.058,1.685,4.307,4.307,0,0,0,1.337.133,4.812,4.812,0,0,0,2.206-.589,9.451,9.451,0,0,0,1.757-1.151,11.2,11.2,0,0,1,1.259-.927,2.332,2.332,0,0,1,2.175-.288,5.566,5.566,0,0,1,1.445.886,2.474,2.474,0,0,0,.263.194c.011,0,.2-.268.421-.6l.4-.6-.069-.055a6.7,6.7,0,0,0-2.449-1.4A3.865,3.865,0,0,0,55.417-812.768Z"/>
    <path id="Path_40" data-name="Path 40" d="M56.1-664.863a5.422,5.422,0,0,0-2.051.963c-.105.078-.4.307-.664.515a7.237,7.237,0,0,1-2.327,1.4,3.331,3.331,0,0,1-1.173.188,3.756,3.756,0,0,1-1.771-.429,7.6,7.6,0,0,1-1.633-1.077,7.7,7.7,0,0,0-1.58-1.049,4.394,4.394,0,0,0-4.162-.006,7.815,7.815,0,0,0-1.467.96,8.3,8.3,0,0,1-1.716,1.16,3.561,3.561,0,0,1-1.743.437,3.468,3.468,0,0,1-1.66-.423,8.941,8.941,0,0,1-1.757-1.2,6.357,6.357,0,0,0-2.657-1.392,4.8,4.8,0,0,0-1.422,0,5.554,5.554,0,0,0-1.9.836,3.4,3.4,0,0,0-.814.645,5.625,5.625,0,0,0,.39.623l.39.576.094-.08c.05-.044.21-.166.354-.274,1.32-.966,2.327-1.124,3.5-.548a7.221,7.221,0,0,1,1.353.913,12.258,12.258,0,0,0,1.356.974,4.919,4.919,0,0,0,4.846.4,9.735,9.735,0,0,0,2.181-1.422,6.232,6.232,0,0,1,1.566-.96,3.249,3.249,0,0,1,2.2-.055,5.914,5.914,0,0,1,1.854,1.121,9.081,9.081,0,0,0,2.5,1.5c1.959.695,3.8.208,5.964-1.575A5.759,5.759,0,0,1,56-663.289a2.3,2.3,0,0,1,1.148-.044,4.827,4.827,0,0,1,1.713.96l.291.23.4-.595c.473-.7.476-.578-.022-.958a4.762,4.762,0,0,0-2.909-1.209A3.545,3.545,0,0,0,56.1-664.863Z" transform="translate(-0.583 -143.823)"/>
    <path id="Path_41" data-name="Path 41" d="M55.58-516.653a6.22,6.22,0,0,0-2.809,1.508,6.651,6.651,0,0,1-2.781,1.511,4.687,4.687,0,0,1-.553.058,5.218,5.218,0,0,1-3.487-1.458,8.041,8.041,0,0,0-1.732-1.151c-1.851-.858-3.606-.545-5.507.991a9.673,9.673,0,0,1-1.431,1.018,3.708,3.708,0,0,1-2.848.5A6.223,6.223,0,0,1,32-515.048a6.516,6.516,0,0,0-2.834-1.542,4.334,4.334,0,0,0-1.464,0,5.532,5.532,0,0,0-1.9.847,5.07,5.07,0,0,0-.8.623c0,.017.75,1.149.789,1.187a2.054,2.054,0,0,0,.271-.2,4.587,4.587,0,0,1,1.951-.991,2.763,2.763,0,0,1,.54-.017,2.569,2.569,0,0,1,1.182.313,6.717,6.717,0,0,1,1.348.9,11.95,11.95,0,0,0,1.193.877,6.052,6.052,0,0,0,2.433.946,5.871,5.871,0,0,0,1.461-.058,7.6,7.6,0,0,0,3.2-1.7,5.317,5.317,0,0,1,2.247-1.223,4.048,4.048,0,0,1,1.24,0,3.6,3.6,0,0,1,.9.321,6.394,6.394,0,0,1,1.273.841,9.062,9.062,0,0,0,2.217,1.417,4.917,4.917,0,0,0,4.4-.141,9.339,9.339,0,0,0,1.943-1.29,4.89,4.89,0,0,1,2.161-1.218,2.482,2.482,0,0,1,.919.058,5.276,5.276,0,0,1,1.619.935,1.7,1.7,0,0,0,.3.21c.008-.006.194-.274.41-.6.382-.567.393-.587.343-.634a10.974,10.974,0,0,0-.938-.7,6.586,6.586,0,0,0-1.259-.639A3.538,3.538,0,0,0,55.58-516.653Z" transform="translate(0 -287.94)"/>
  </g>
</svg>
